<mxfile host="app.diagrams.net" modified="2020-05-12T09:54:14.473Z" agent="5.0 (Macintosh; Intel Mac OS X 10_15_3) AppleWebKit/537.36 (KHTML, like Gecko) Chrome/81.0.4044.138 Safari/537.36" etag="qzwT5RrBQNK9jm9I9y_q" version="13.0.8" type="github">
  <diagram id="RC9avffKnGslfeTPu71o" name="Page-1">
    <mxGraphModel dx="1277" dy="618" grid="1" gridSize="10" guides="1" tooltips="1" connect="1" arrows="1" fold="1" page="1" pageScale="1" pageWidth="827" pageHeight="1169" math="0" shadow="0">
      <root>
        <mxCell id="0" />
        <mxCell id="1" parent="0" />
        <mxCell id="0AQ8cwJDegLjUGuPoQnK-4" style="edgeStyle=orthogonalEdgeStyle;rounded=0;orthogonalLoop=1;jettySize=auto;html=1;exitX=1;exitY=0.75;exitDx=0;exitDy=0;entryX=1;entryY=0.25;entryDx=0;entryDy=0;" edge="1" parent="1" source="nqUM3Sm1_1U_bCqg0LgO-1" target="aNvzju850t84WLl4p4Ta-3">
          <mxGeometry relative="1" as="geometry">
            <Array as="points">
              <mxPoint x="290" y="160" />
              <mxPoint x="290" y="310" />
            </Array>
          </mxGeometry>
        </mxCell>
        <mxCell id="0AQ8cwJDegLjUGuPoQnK-8" style="edgeStyle=orthogonalEdgeStyle;rounded=0;orthogonalLoop=1;jettySize=auto;html=1;exitX=1;exitY=0.25;exitDx=0;exitDy=0;entryX=1;entryY=0.5;entryDx=0;entryDy=0;" edge="1" parent="1" source="nqUM3Sm1_1U_bCqg0LgO-1" target="aNvzju850t84WLl4p4Ta-4">
          <mxGeometry relative="1" as="geometry">
            <Array as="points">
              <mxPoint x="380" y="140" />
              <mxPoint x="380" y="400" />
            </Array>
          </mxGeometry>
        </mxCell>
        <mxCell id="0AQ8cwJDegLjUGuPoQnK-17" style="edgeStyle=orthogonalEdgeStyle;rounded=0;orthogonalLoop=1;jettySize=auto;html=1;exitX=0.75;exitY=0;exitDx=0;exitDy=0;entryX=0.5;entryY=1;entryDx=0;entryDy=0;" edge="1" parent="1" source="nqUM3Sm1_1U_bCqg0LgO-1" target="aNvzju850t84WLl4p4Ta-5">
          <mxGeometry relative="1" as="geometry">
            <Array as="points">
              <mxPoint x="185" y="80" />
              <mxPoint x="580" y="80" />
              <mxPoint x="580" y="540" />
              <mxPoint x="160" y="540" />
            </Array>
          </mxGeometry>
        </mxCell>
        <mxCell id="nqUM3Sm1_1U_bCqg0LgO-1" value="客户端" style="rounded=1;whiteSpace=wrap;html=1;" parent="1" vertex="1">
          <mxGeometry x="110" y="130" width="100" height="40" as="geometry" />
        </mxCell>
        <mxCell id="0AQ8cwJDegLjUGuPoQnK-2" style="edgeStyle=orthogonalEdgeStyle;rounded=0;orthogonalLoop=1;jettySize=auto;html=1;exitX=0.75;exitY=0;exitDx=0;exitDy=0;entryX=0.75;entryY=1;entryDx=0;entryDy=0;" edge="1" parent="1" source="aNvzju850t84WLl4p4Ta-1" target="nqUM3Sm1_1U_bCqg0LgO-1">
          <mxGeometry relative="1" as="geometry" />
        </mxCell>
        <mxCell id="aNvzju850t84WLl4p4Ta-1" value="本地DNS服务器" style="rounded=1;whiteSpace=wrap;html=1;" parent="1" vertex="1">
          <mxGeometry x="110" y="210" width="100" height="40" as="geometry" />
        </mxCell>
        <mxCell id="aNvzju850t84WLl4p4Ta-2" value="" style="endArrow=classic;html=1;exitX=0.5;exitY=1;exitDx=0;exitDy=0;entryX=0.5;entryY=0;entryDx=0;entryDy=0;" parent="1" source="nqUM3Sm1_1U_bCqg0LgO-1" target="aNvzju850t84WLl4p4Ta-1" edge="1">
          <mxGeometry width="50" height="50" relative="1" as="geometry">
            <mxPoint x="390" y="370" as="sourcePoint" />
            <mxPoint x="440" y="320" as="targetPoint" />
          </mxGeometry>
        </mxCell>
        <mxCell id="0AQ8cwJDegLjUGuPoQnK-6" style="edgeStyle=orthogonalEdgeStyle;rounded=0;orthogonalLoop=1;jettySize=auto;html=1;exitX=1;exitY=0.5;exitDx=0;exitDy=0;entryX=1;entryY=0.5;entryDx=0;entryDy=0;" edge="1" parent="1" source="aNvzju850t84WLl4p4Ta-3" target="nqUM3Sm1_1U_bCqg0LgO-1">
          <mxGeometry relative="1" as="geometry">
            <Array as="points">
              <mxPoint x="340" y="320" />
              <mxPoint x="340" y="150" />
            </Array>
          </mxGeometry>
        </mxCell>
        <mxCell id="aNvzju850t84WLl4p4Ta-3" value="根域名服务器" style="rounded=1;whiteSpace=wrap;html=1;" parent="1" vertex="1">
          <mxGeometry x="110" y="300" width="100" height="40" as="geometry" />
        </mxCell>
        <mxCell id="0AQ8cwJDegLjUGuPoQnK-11" style="edgeStyle=orthogonalEdgeStyle;rounded=0;orthogonalLoop=1;jettySize=auto;html=1;exitX=1;exitY=0.75;exitDx=0;exitDy=0;entryX=1;entryY=0;entryDx=0;entryDy=0;" edge="1" parent="1" source="aNvzju850t84WLl4p4Ta-4" target="nqUM3Sm1_1U_bCqg0LgO-1">
          <mxGeometry relative="1" as="geometry">
            <Array as="points">
              <mxPoint x="450" y="410" />
              <mxPoint x="450" y="110" />
              <mxPoint x="210" y="110" />
            </Array>
          </mxGeometry>
        </mxCell>
        <mxCell id="aNvzju850t84WLl4p4Ta-4" value="顶级域名服务器" style="rounded=1;whiteSpace=wrap;html=1;" parent="1" vertex="1">
          <mxGeometry x="110" y="380" width="100" height="40" as="geometry" />
        </mxCell>
        <mxCell id="aNvzju850t84WLl4p4Ta-5" value="B域名服务器" style="rounded=1;whiteSpace=wrap;html=1;" parent="1" vertex="1">
          <mxGeometry x="110" y="460" width="100" height="40" as="geometry" />
        </mxCell>
        <mxCell id="aNvzju850t84WLl4p4Ta-9" value="1、发起xxx域名对应的ip地址寻址请求" style="text;html=1;strokeColor=none;fillColor=none;align=center;verticalAlign=middle;whiteSpace=wrap;rounded=0;" parent="1" vertex="1">
          <mxGeometry x="60" y="180" width="110" height="20" as="geometry" />
        </mxCell>
        <mxCell id="0AQ8cwJDegLjUGuPoQnK-3" value="返回根服务器地址" style="text;html=1;strokeColor=none;fillColor=none;align=center;verticalAlign=middle;whiteSpace=wrap;rounded=0;" vertex="1" parent="1">
          <mxGeometry x="170" y="180" width="60" height="20" as="geometry" />
        </mxCell>
        <mxCell id="0AQ8cwJDegLjUGuPoQnK-5" value="2、向根发起寻址请求" style="text;html=1;strokeColor=none;fillColor=none;align=center;verticalAlign=middle;whiteSpace=wrap;rounded=0;" vertex="1" parent="1">
          <mxGeometry x="230" y="240" width="100" height="20" as="geometry" />
        </mxCell>
        <mxCell id="0AQ8cwJDegLjUGuPoQnK-7" value="返回A顶级" style="text;html=1;strokeColor=none;fillColor=none;align=center;verticalAlign=middle;whiteSpace=wrap;rounded=0;" vertex="1" parent="1">
          <mxGeometry x="330" y="210" width="40" height="20" as="geometry" />
        </mxCell>
        <mxCell id="0AQ8cwJDegLjUGuPoQnK-9" value="3、向顶级发起寻址请求" style="text;html=1;strokeColor=none;fillColor=none;align=center;verticalAlign=middle;whiteSpace=wrap;rounded=0;" vertex="1" parent="1">
          <mxGeometry x="360" y="270" width="80" height="20" as="geometry" />
        </mxCell>
        <mxCell id="0AQ8cwJDegLjUGuPoQnK-12" value="Text" style="text;html=1;strokeColor=none;fillColor=none;align=center;verticalAlign=middle;whiteSpace=wrap;rounded=0;" vertex="1" parent="1">
          <mxGeometry x="390" y="290" width="40" height="20" as="geometry" />
        </mxCell>
        <mxCell id="0AQ8cwJDegLjUGuPoQnK-15" value="返回b" style="text;html=1;strokeColor=none;fillColor=none;align=center;verticalAlign=middle;whiteSpace=wrap;rounded=0;" vertex="1" parent="1">
          <mxGeometry x="440" y="240" width="40" height="20" as="geometry" />
        </mxCell>
        <mxCell id="0AQ8cwJDegLjUGuPoQnK-18" value="最终与b通信" style="text;html=1;strokeColor=none;fillColor=none;align=center;verticalAlign=middle;whiteSpace=wrap;rounded=0;" vertex="1" parent="1">
          <mxGeometry x="540" y="290" width="40" height="20" as="geometry" />
        </mxCell>
      </root>
    </mxGraphModel>
  </diagram>
</mxfile>
